<mxfile host="app.diagrams.net" modified="2021-07-07T07:12:58.828Z" agent="5.0 (Windows NT 10.0; Win64; x64) AppleWebKit/537.36 (KHTML, like Gecko) Chrome/91.0.4472.124 Safari/537.36" etag="UVUFRDb2Ly58eiVQS_83" version="14.8.4" type="github">
  <diagram id="0eA8aw2C4x_AHw5Ap8uo" name="Page-1">
    <mxGraphModel dx="174" dy="473" grid="1" gridSize="10" guides="1" tooltips="1" connect="1" arrows="1" fold="1" page="1" pageScale="1" pageWidth="850" pageHeight="1100" math="0" shadow="0">
      <root>
        <mxCell id="0" />
        <mxCell id="1" parent="0" />
        <mxCell id="VWwcEUDeF1Gve_b1o335-2" value="pod2" style="rounded=1;whiteSpace=wrap;html=1;verticalAlign=top;align=center;fillColor=#dae8fc;strokeColor=#6c8ebf;" parent="1" vertex="1">
          <mxGeometry x="1450" y="30" width="260" height="120" as="geometry" />
        </mxCell>
        <mxCell id="VWwcEUDeF1Gve_b1o335-1" value="pod 1" style="rounded=1;whiteSpace=wrap;html=1;verticalAlign=top;align=center;fillColor=#dae8fc;strokeColor=#6c8ebf;" parent="1" vertex="1">
          <mxGeometry x="1180" y="30" width="260" height="120" as="geometry" />
        </mxCell>
        <mxCell id="QmatbKFXltCY_Pcwm0E2-3" value="socket" style="rounded=0;whiteSpace=wrap;html=1;strokeWidth=1;fontSize=13;fillColor=#ffe6cc;strokeColor=#d79b00;shadow=1;" parent="1" vertex="1">
          <mxGeometry x="1190" y="110" width="70" height="30" as="geometry" />
        </mxCell>
        <mxCell id="iiiFNm3sH5NRJoXFnMdE-21" style="edgeStyle=orthogonalEdgeStyle;rounded=0;orthogonalLoop=1;jettySize=auto;html=1;exitX=0.5;exitY=0;exitDx=0;exitDy=0;entryX=0;entryY=0.5;entryDx=0;entryDy=0;" edge="1" parent="1" source="QmatbKFXltCY_Pcwm0E2-28" target="iiiFNm3sH5NRJoXFnMdE-15">
          <mxGeometry relative="1" as="geometry" />
        </mxCell>
        <mxCell id="QmatbKFXltCY_Pcwm0E2-28" value="socket" style="rounded=0;whiteSpace=wrap;html=1;strokeWidth=1;fontSize=13;fillColor=#ffe6cc;strokeColor=#d79b00;glass=0;shadow=1;" parent="1" vertex="1">
          <mxGeometry x="1280" y="110" width="70" height="30" as="geometry" />
        </mxCell>
        <mxCell id="VWwcEUDeF1Gve_b1o335-5" style="edgeStyle=orthogonalEdgeStyle;rounded=0;orthogonalLoop=1;jettySize=auto;html=1;entryX=0.75;entryY=1;entryDx=0;entryDy=0;curved=1;dashed=1;exitX=0.5;exitY=0;exitDx=0;exitDy=0;" parent="1" source="iiiFNm3sH5NRJoXFnMdE-32" target="QmatbKFXltCY_Pcwm0E2-3" edge="1">
          <mxGeometry relative="1" as="geometry">
            <mxPoint x="1430" y="230" as="sourcePoint" />
            <mxPoint x="1216.43" y="141.59000000000003" as="targetPoint" />
            <Array as="points">
              <mxPoint x="1450" y="200" />
              <mxPoint x="1243" y="200" />
            </Array>
          </mxGeometry>
        </mxCell>
        <mxCell id="VWwcEUDeF1Gve_b1o335-6" style="edgeStyle=orthogonalEdgeStyle;curved=1;rounded=0;orthogonalLoop=1;jettySize=auto;html=1;dashed=1;exitX=0.5;exitY=0;exitDx=0;exitDy=0;" parent="1" source="iiiFNm3sH5NRJoXFnMdE-32" target="VWwcEUDeF1Gve_b1o335-4" edge="1">
          <mxGeometry relative="1" as="geometry">
            <Array as="points">
              <mxPoint x="1450" y="190" />
              <mxPoint x="1585" y="190" />
            </Array>
            <mxPoint x="1430" y="230" as="sourcePoint" />
          </mxGeometry>
        </mxCell>
        <mxCell id="VWwcEUDeF1Gve_b1o335-7" style="edgeStyle=orthogonalEdgeStyle;curved=1;rounded=0;orthogonalLoop=1;jettySize=auto;html=1;dashed=1;entryX=0.75;entryY=1;entryDx=0;entryDy=0;exitX=0.5;exitY=0;exitDx=0;exitDy=0;" parent="1" source="iiiFNm3sH5NRJoXFnMdE-32" target="QmatbKFXltCY_Pcwm0E2-28" edge="1">
          <mxGeometry relative="1" as="geometry">
            <mxPoint x="1290" y="250" as="sourcePoint" />
            <Array as="points">
              <mxPoint x="1450" y="190" />
              <mxPoint x="1333" y="190" />
            </Array>
          </mxGeometry>
        </mxCell>
        <mxCell id="VWwcEUDeF1Gve_b1o335-8" style="edgeStyle=orthogonalEdgeStyle;curved=1;rounded=0;orthogonalLoop=1;jettySize=auto;html=1;dashed=1;exitX=0.5;exitY=0;exitDx=0;exitDy=0;" parent="1" source="iiiFNm3sH5NRJoXFnMdE-32" target="VWwcEUDeF1Gve_b1o335-3" edge="1">
          <mxGeometry relative="1" as="geometry">
            <mxPoint x="1430" y="230" as="sourcePoint" />
          </mxGeometry>
        </mxCell>
        <mxCell id="iiiFNm3sH5NRJoXFnMdE-23" style="edgeStyle=orthogonalEdgeStyle;rounded=0;orthogonalLoop=1;jettySize=auto;html=1;exitX=0.5;exitY=0;exitDx=0;exitDy=0;entryX=0.5;entryY=1;entryDx=0;entryDy=0;" edge="1" parent="1" source="VWwcEUDeF1Gve_b1o335-3" target="iiiFNm3sH5NRJoXFnMdE-16">
          <mxGeometry relative="1" as="geometry" />
        </mxCell>
        <mxCell id="VWwcEUDeF1Gve_b1o335-3" value="socket" style="rounded=0;whiteSpace=wrap;html=1;strokeWidth=1;fontSize=13;fillColor=#ffe6cc;strokeColor=#d79b00;shadow=1;" parent="1" vertex="1">
          <mxGeometry x="1465" y="110" width="70" height="30" as="geometry" />
        </mxCell>
        <mxCell id="VWwcEUDeF1Gve_b1o335-4" value="socket" style="rounded=0;whiteSpace=wrap;html=1;strokeWidth=1;fontSize=13;fillColor=#ffe6cc;strokeColor=#d79b00;glass=0;shadow=1;" parent="1" vertex="1">
          <mxGeometry x="1545" y="110" width="70" height="30" as="geometry" />
        </mxCell>
        <mxCell id="iiiFNm3sH5NRJoXFnMdE-7" value="socket" style="rounded=0;whiteSpace=wrap;html=1;strokeWidth=1;fontSize=13;fillColor=#ffe6cc;strokeColor=#d79b00;glass=0;shadow=1;" vertex="1" parent="1">
          <mxGeometry x="1360" y="110" width="70" height="30" as="geometry" />
        </mxCell>
        <mxCell id="iiiFNm3sH5NRJoXFnMdE-1" value="Maps" style="strokeWidth=2;html=1;shape=mxgraph.flowchart.database;whiteSpace=wrap;" vertex="1" parent="1">
          <mxGeometry x="1387.5" y="310" width="102.5" height="40" as="geometry" />
        </mxCell>
        <mxCell id="iiiFNm3sH5NRJoXFnMdE-25" style="edgeStyle=orthogonalEdgeStyle;rounded=0;orthogonalLoop=1;jettySize=auto;html=1;exitX=0.5;exitY=0;exitDx=0;exitDy=0;entryX=0.5;entryY=1;entryDx=0;entryDy=0;" edge="1" parent="1" source="iiiFNm3sH5NRJoXFnMdE-8" target="iiiFNm3sH5NRJoXFnMdE-14">
          <mxGeometry relative="1" as="geometry" />
        </mxCell>
        <mxCell id="iiiFNm3sH5NRJoXFnMdE-8" value="socket" style="rounded=0;whiteSpace=wrap;html=1;strokeWidth=1;fontSize=13;fillColor=#ffe6cc;strokeColor=#d79b00;glass=0;shadow=1;" vertex="1" parent="1">
          <mxGeometry x="1630" y="110" width="70" height="30" as="geometry" />
        </mxCell>
        <mxCell id="iiiFNm3sH5NRJoXFnMdE-10" style="edgeStyle=orthogonalEdgeStyle;rounded=0;orthogonalLoop=1;jettySize=auto;html=1;entryX=0.398;entryY=-0.107;entryDx=0;entryDy=0;entryPerimeter=0;curved=1;dashed=1;exitX=0.5;exitY=0;exitDx=0;exitDy=0;" edge="1" parent="1" source="iiiFNm3sH5NRJoXFnMdE-32">
          <mxGeometry relative="1" as="geometry">
            <mxPoint x="1430" y="230" as="sourcePoint" />
            <mxPoint x="1386.8600000000001" y="136.78999999999996" as="targetPoint" />
          </mxGeometry>
        </mxCell>
        <mxCell id="iiiFNm3sH5NRJoXFnMdE-11" style="edgeStyle=orthogonalEdgeStyle;curved=1;rounded=0;orthogonalLoop=1;jettySize=auto;html=1;dashed=1;exitX=0.5;exitY=0;exitDx=0;exitDy=0;" edge="1" parent="1" source="iiiFNm3sH5NRJoXFnMdE-32">
          <mxGeometry relative="1" as="geometry">
            <Array as="points">
              <mxPoint x="1450" y="200" />
              <mxPoint x="1662" y="200" />
            </Array>
            <mxPoint x="1430" y="230" as="sourcePoint" />
            <mxPoint x="1662" y="140" as="targetPoint" />
          </mxGeometry>
        </mxCell>
        <mxCell id="iiiFNm3sH5NRJoXFnMdE-18" style="edgeStyle=orthogonalEdgeStyle;rounded=0;orthogonalLoop=1;jettySize=auto;html=1;exitX=0.5;exitY=1;exitDx=0;exitDy=0;entryX=0.5;entryY=0;entryDx=0;entryDy=0;" edge="1" parent="1" source="iiiFNm3sH5NRJoXFnMdE-12" target="QmatbKFXltCY_Pcwm0E2-3">
          <mxGeometry relative="1" as="geometry" />
        </mxCell>
        <mxCell id="iiiFNm3sH5NRJoXFnMdE-12" value="client" style="rounded=0;whiteSpace=wrap;html=1;strokeWidth=1;fontSize=13;fillColor=#C3ABD0;strokeColor=#d79b00;shadow=1;" vertex="1" parent="1">
          <mxGeometry x="1190" y="60" width="70" height="30" as="geometry" />
        </mxCell>
        <mxCell id="iiiFNm3sH5NRJoXFnMdE-14" value="server" style="rounded=0;whiteSpace=wrap;html=1;strokeWidth=1;fontSize=13;fillColor=#C3ABD0;strokeColor=#d79b00;shadow=1;" vertex="1" parent="1">
          <mxGeometry x="1630" y="60" width="70" height="30" as="geometry" />
        </mxCell>
        <mxCell id="iiiFNm3sH5NRJoXFnMdE-22" style="edgeStyle=orthogonalEdgeStyle;rounded=0;orthogonalLoop=1;jettySize=auto;html=1;exitX=0.5;exitY=1;exitDx=0;exitDy=0;entryX=0.5;entryY=0;entryDx=0;entryDy=0;" edge="1" parent="1" source="iiiFNm3sH5NRJoXFnMdE-15" target="iiiFNm3sH5NRJoXFnMdE-7">
          <mxGeometry relative="1" as="geometry" />
        </mxCell>
        <mxCell id="iiiFNm3sH5NRJoXFnMdE-32" value="&lt;font color=&quot;#ffffff&quot; style=&quot;font-size: 14px&quot;&gt;&lt;br&gt;&lt;/font&gt;" style="rounded=1;whiteSpace=wrap;html=1;strokeColor=#FFFFFF;fillColor=#B9E0A5;" vertex="1" parent="1">
          <mxGeometry x="1350" y="210" width="200" height="50" as="geometry" />
        </mxCell>
        <mxCell id="iiiFNm3sH5NRJoXFnMdE-15" value="envoy" style="rounded=0;whiteSpace=wrap;html=1;strokeWidth=1;fontSize=13;fillColor=#FFFFFF;strokeColor=#d79b00;shadow=1;" vertex="1" parent="1">
          <mxGeometry x="1360" y="60" width="70" height="30" as="geometry" />
        </mxCell>
        <mxCell id="iiiFNm3sH5NRJoXFnMdE-24" style="edgeStyle=orthogonalEdgeStyle;rounded=0;orthogonalLoop=1;jettySize=auto;html=1;exitX=1;exitY=0.5;exitDx=0;exitDy=0;entryX=0.5;entryY=0;entryDx=0;entryDy=0;" edge="1" parent="1" source="iiiFNm3sH5NRJoXFnMdE-16" target="VWwcEUDeF1Gve_b1o335-4">
          <mxGeometry relative="1" as="geometry" />
        </mxCell>
        <mxCell id="iiiFNm3sH5NRJoXFnMdE-16" value="envoy" style="rounded=0;whiteSpace=wrap;html=1;strokeWidth=1;fontSize=13;fillColor=#FFFFFF;strokeColor=#d79b00;shadow=1;" vertex="1" parent="1">
          <mxGeometry x="1465" y="60" width="70" height="30" as="geometry" />
        </mxCell>
        <mxCell id="iiiFNm3sH5NRJoXFnMdE-31" value="&lt;font color=&quot;#ffffff&quot; style=&quot;font-size: 14px&quot;&gt;sk_msg&lt;/font&gt;" style="rounded=1;whiteSpace=wrap;html=1;strokeColor=#FFFFFF;fillColor=#60A917;" vertex="1" parent="1">
          <mxGeometry x="1438" y="220.85" width="62" height="28.29" as="geometry" />
        </mxCell>
        <mxCell id="iiiFNm3sH5NRJoXFnMdE-34" value="" style="shape=image;verticalLabelPosition=bottom;labelBackgroundColor=#ffffff;verticalAlign=top;aspect=fixed;imageAspect=0;image=https://ebpf.io/static/logo-big-9cf8920e80cdc57e6ea60825ebe287ca.png;" vertex="1" parent="1">
          <mxGeometry x="1500" y="242.59" width="50" height="17.41" as="geometry" />
        </mxCell>
        <mxCell id="iiiFNm3sH5NRJoXFnMdE-48" style="edgeStyle=orthogonalEdgeStyle;rounded=0;orthogonalLoop=1;jettySize=auto;html=1;exitX=0.5;exitY=1;exitDx=0;exitDy=0;entryX=0.126;entryY=0.21;entryDx=0;entryDy=0;entryPerimeter=0;" edge="1" parent="1" source="iiiFNm3sH5NRJoXFnMdE-42" target="iiiFNm3sH5NRJoXFnMdE-1">
          <mxGeometry relative="1" as="geometry" />
        </mxCell>
        <mxCell id="iiiFNm3sH5NRJoXFnMdE-42" value="&lt;font color=&quot;#ffffff&quot; style=&quot;font-size: 14px&quot;&gt;sock_ops&lt;/font&gt;" style="rounded=1;whiteSpace=wrap;html=1;strokeColor=#FFFFFF;fillColor=#60A917;" vertex="1" parent="1">
          <mxGeometry x="1370" y="220.85" width="60" height="28.29" as="geometry" />
        </mxCell>
        <mxCell id="iiiFNm3sH5NRJoXFnMdE-46" style="edgeStyle=orthogonalEdgeStyle;rounded=0;orthogonalLoop=1;jettySize=auto;html=1;exitX=1;exitY=0.15;exitDx=0;exitDy=0;exitPerimeter=0;" edge="1" parent="1">
          <mxGeometry relative="1" as="geometry">
            <mxPoint x="1476" y="316" as="sourcePoint" />
            <mxPoint x="1476" y="250" as="targetPoint" />
            <Array as="points">
              <mxPoint x="1476" y="270" />
              <mxPoint x="1476" y="270" />
            </Array>
          </mxGeometry>
        </mxCell>
      </root>
    </mxGraphModel>
  </diagram>
</mxfile>
